<svg xmlns="http://www.w3.org/2000/svg" viewBox="0 0 881.62 727.57"><defs><style>.a{fill:#1d3019;}.b{fill:#1c3019;}.c{font-size:78.32px;font-family:FZSSK--GBK1-0, FZShuSong-Z01;}</style></defs><path class="a" d="M813.17,485.53c-17.93,11.18-36.64,20-57.92,23.21-31.52,4.73-60.55-.78-87.51-17.95a299.42,299.42,0,0,0-31.21-17.53c-18-8.65-36.41-8.77-54.64-.3-16,7.4-31.68,15.34-47.83,22.3-22.58,9.74-45.93,15.33-70.64,9.17-3.53-.88-6.85-2.59-10-3.83l44.71-19.93-.6-1.81-27-2.67-.4-2.29c21.35-4,41.32-10.84,56.41-27.16,3.55-3.84,6.59-8.16,10.63-13.21-16.83-3.3-29-11.23-38.41-25.17,30.34-11.19,54.66-29.12,72.64-56.27-11.88-2.56-23.75-3.57-30.62-13.72,10.71-7.26,21.89-13.52,31.44-21.69s17.2-18.05,26-27.52l-34.95,2.07-.32-3,24.26-13.76-21.88-4.82c54.07-26.37,60.79-75.05,66.65-126,4.36,20.25,7.56,38.61,12.33,56.55,9.27,34.91,29.5,62.13,60.13,81.48,1,.65,2,1.49,5,3.87-8.63,1.69-15.35,3.53-22.19,4.2s-13.56.15-21.33.15c14.66,29.08,42.21,39,70,50.69l-34.64,7.84C717.76,372.21,741,385.12,770.5,394l-21.7,5.24,41.17,20c-20.27,11.5-41.46,16.47-66.49,9.41,23.41,31.54,56.19,43.84,89.69,55Zm-313.8,5.57c20.15,3.71,38-5.15,55.62-15.32,13.32-7.71,26.51-15.68,40.14-22.82,23.64-12.39,46.27-11.27,69.6,3.06,17.23,10.58,36.12,19,55.15,26,19.34,7.08,39,3.94,59-5.05-55.2-12.39-103.66-55.58-109.32-95.47,15.35,10,30.76,21.34,47.34,30.55,17.16,9.54,35.87,11.47,56.86,4.36-22.71-6.09-43.13-12.64-60.5-28.76h28c-43.65-18.21-79.4-48.72-85.24-74.26,13,11.7,28.09,17.06,45.49,16.35-28.5-14.73-48.42-36.2-56.84-68.54,22.57,14.41,36,19,48.67,16.42-30.55-16.61-52.09-40-59.93-72.5-5.06,9.76-9.09,20.94-16,29.9s-16.87,16-25.58,23.91H606c-9.1,9.21-16.43,16.65-24.79,25.12,20.17-5.23,32.44-18.69,44.18-33C616.05,288.63,592.9,315,557,333c16.92,4.07,29.43-2.36,42.7-6.92-17.92,38.94-46.31,66.31-87.54,80.88,14.32,8.9,28.71,8.75,42.71,3.85,13.23-4.62,25.78-11.21,39.4-17.27-20.25,30.05-45.07,54.08-77.34,71.15h25.26l1.2,3.53Z" transform="translate(-61.02 -143.67)"/><path class="a" d="M607.1,551.7c1.55-18.13,3.13-36.25,4.63-54.38.62-7.48,1.07-15,1.82-25.65,10.79,5,20.42,8.93,29.49,13.92,2.26,1.24,3.5,5.71,3.85,8.84,2.08,19.07,3.76,38.17,5.58,57.27Z" transform="translate(-61.02 -143.67)"/><path class="a" d="M343,549.55c2.7-25.52,5.4-51,8.42-79.54,9.91,4.44,19.19,8.21,28,12.82,2.32,1.21,4.45,4.93,4.69,7.67,1.69,19.66,2.88,39.36,4.23,59Z" transform="translate(-61.02 -143.67)"/><path class="a" d="M276.63,334.66c25.49-9.29,42.51-27.41,57.34-47.6l-33.27,2.13-.53-3.07,24.16-13.85L306,268.44l-1.9-1.87c52.27-25.1,58.86-74,65.74-122.9,7.16,56.26,22,107.53,75.33,138.32l-.66,3.15-40.12,3.38c4.76,16.34,15.59,24.2,69.07,51.15L438.63,347c16.48,23.23,39.89,36,69.27,45l-22.23,5.12,41.64,20.07c-21,11.23-41.9,16.31-66.52,9.44,22.6,31.38,55.66,42.45,88.83,55.49-16.36,13.69-34.67,20.4-54.23,23.92-34.05,6.14-65.65.1-94.23-20-4.36-3.07-9.2-5.45-13.76-8.24-25.75-15.75-51.54-17.12-78.64-2.5-22.35,12.05-45.13,23.8-70.67,27.94-15.94,2.59-31.83,3-47.59-4.77l45-20.1c-.24-.56-.49-1.12-.73-1.69l-29.17-2.58c14.92-5.69,27.49-9.63,39.28-15.21,12.07-5.73,21.54-14.94,28.64-27.61-16-3-28.26-10.68-37.47-24.52,30.45-11.47,54.65-29.56,72.39-56.89C296.39,347.55,284.6,346.35,276.63,334.66Z" transform="translate(-61.02 -143.67)"/><path class="b" d="M501.83,580.59q222.45,0,440.81,12.41c-139.52-31.9-287.51-49.06-440.81-49.06S200.55,561.1,61,593Q279.3,580.68,501.83,580.59Z" transform="translate(-61.02 -143.67)"/><path d="M313.79,677.11c8.46,22.74,25.49,39.11,43.4,47l-.44,1.32c-6.26,1.21-11.54,6.48-14.06,14.28-16.37-12.63-25.27-32.19-30.33-60.76v67.68c0,1.54-7.14,5.61-13.4,5.61h-3.08V703.48c-9.88,15.27-23.95,28-42.41,37.35l-1-1c17.91-15.49,30.66-40.32,36.26-62.73H255l-.88-3.08h41.75V648l20.55,2c-.22,1.54-1,2.75-4.07,3.19V674h19l8.9-11.32s10.11,7.58,16.15,12.64c-.33,1.21-1.65,1.76-3.29,1.76Z" transform="translate(-61.02 -143.67)"/><path d="M476.73,678.21s8.68,7.47,13.62,12.3c-.33,1.21-1.54,1.76-3.18,1.76H462.56v54.05c0,1.65-7.15,5.61-13.41,5.61h-3.08V692.27H428.28v31.09c-.22.88-8,4-13.52,4h-2.63V715.56h-7.92v11.32c0,1.65-6.48,5.38-13.4,5.38h-2.42V659.42l16.26,6.48H411l7.14-7.91,14.39,11.1a6.61,6.61,0,0,1-4.28,2.41v17.69h17.79V649.64l20.55,2c-.22,1.54-1,2.74-4.06,3.18v34.39h6.59Zm-64.6,34.27V669h-7.92v43.5Z" transform="translate(-61.02 -143.67)"/><path d="M614.28,676.12c-1.86,16.7-5.93,31.86-14.5,44.6a69,69,0,0,0,22.85,16.49l-.32,1.09c-7.48,1.65-11.65,5.94-13.52,13.08a56.19,56.19,0,0,1-17-20.77c-9.23,9.12-21.75,16.48-38.89,21.32l-.66-1c16.59-8.79,27.47-20.11,34.39-33.07a149.34,149.34,0,0,1-5.39-25.38,75,75,0,0,1-13.4,14.83l-1.32-.77c1-2.2,2-4.61,3-7.14a10,10,0,0,1-3.19.66c-3.62,2.09-7.91,4.28-12.3,6.26l4.06.33c-.22,1.65-1.32,2.42-3.62,2.75V713c6.59-.76,13.4-1.64,20.32-2.63l.22,1.43c-5.38,2.41-12.08,5.16-20.54,8.35v15.38c0,10-2.2,15.27-18.35,16.7-.33-4.73-.88-8-2.64-10.22s-3.84-3.74-9.45-4.72v-1.43s11.43.66,13.63.66c1.53,0,2-.44,2-1.65v-9.23c-4.17,1.43-8.57,3-13.29,4.61a4.91,4.91,0,0,1-3.19,2.75l-6.15-15.71c4.72-.33,12.85-1.21,22.63-2.42v-9.78l7.14.55c1.54-2.41,3.08-5.16,4.29-7.47h-9.56a117.73,117.73,0,0,1-25.6,16.15l-1-1.1a120.34,120.34,0,0,0,16.81-15H522l-1-3.07h13.4c3.19-3.63,6.15-7.48,9-11.32h-26.7l-.88-3.08h16.37V666.34H520.79l-.88-3.08h12.3V648.1l18.9,1.43c-.22,1.65-1,2.64-4.07,3.19v9.66l5-6.81s2.53,2.09,5.38,4.62c1.87-3.85,3.41-7.58,4.73-11.1l16.59,8.13c-.66,1.21-1.76,1.87-4.51,1.43A141.65,141.65,0,0,1,559,680.73h3.3l5.49-7.47s4.17,3.41,7.69,6.7a198.4,198.4,0,0,0,5-31.64l20.77,5.06c-.33,1.42-1.65,2.41-4.29,2.52A154.91,154.91,0,0,1,591.54,673h9.12l7.69-10.22s8.68,6.93,13.74,11.54c-.33,1.21-1.54,1.76-3.08,1.76Zm-44.38,22a148.37,148.37,0,0,0,4.5-14.28h-18a138.8,138.8,0,0,1-11.31,11.32h6.26l6.92-7ZM547,666.34v12.09c2.64-4,5.06-8,7.26-12.09Zm43.18,9.78a87.45,87.45,0,0,1-6.7,12.85A82.85,82.85,0,0,0,591,708.09a111.15,111.15,0,0,0,6.15-32Z" transform="translate(-61.02 -143.67)"/><path d="M737.34,653.16s8.68,6.48,13.84,11c-.33,1.21-1.54,1.76-3.07,1.76H692.73l14.72,4.5c-.44,1.21-1.86,2.2-4.5,2-6.26,3-15.82,5.83-24.83,7.91,11.32.11,27,0,43.4-.11a93,93,0,0,0-9.78-10.54l.77-.66c40.1,2.41,32.41,31.2,17.14,23.84a56.08,56.08,0,0,0-5.94-9.89c-12,2.53-29.11,5.93-49.66,9.23l11.76,4.5h29.11l6.93-7.8L736.24,700a6.75,6.75,0,0,1-4.29,2.31v34.39c0,9.22-2.41,14.39-19.33,15.6-.33-4.4-.88-7.58-2.64-9.67s-3.74-3.52-9.56-4.51v-1.42s10.77.76,13.52.76c1.64,0,2.08-.76,2.08-2.08V728.2H684.93v19c0,1.54-6.7,5.17-13.29,5.17h-2.31V693.81a6.42,6.42,0,0,1-2.64,2l-6.37-16.15a32,32,0,0,0,4.17-.77c7.59-1.53,17.58-8.57,22.2-13H651.31l-.88-3.08h44.94a7.4,7.4,0,0,1-1.21-.77,24.51,24.51,0,0,0-5.93-14.17l.66-.55c22.85-.88,23.07,11.32,16.59,15.49h24.28Zm-52.41,46.58v10.88H716V699.74ZM716,725.12V713.69H684.93v11.43Z" transform="translate(-61.02 -143.67)"/><text class="c" transform="translate(191.46 705.23)">Muye Education</text></svg>